<?xml version="1.0" encoding="utf-8"?>
<!-- Generator: Adobe Illustrator 17.0.0, SVG Export Plug-In . SVG Version: 6.00 Build 0)  -->
<!DOCTYPE svg PUBLIC "-//W3C//DTD SVG 1.1//EN" "http://www.w3.org/Graphics/SVG/1.1/DTD/svg11.dtd">
<svg version="1.1" id="Layer_1" xmlns="http://www.w3.org/2000/svg" xmlns:xlink="http://www.w3.org/1999/xlink" x="0px" y="0px"
	 width="75.331px" height="61.131px" viewBox="17.585 5.792 75.331 61.131" enable-background="new 17.585 5.792 75.331 61.131"
	 xml:space="preserve">
<g id="XMLID_1_">
	<g>
		<path fill="#5C97BF" d="M70.79,18.66c-0.69,0.82-1.04,1.76-0.99,2.59c0.12,1.62,2.38,2.14,1.82,5.88
			c-0.18,1.24-0.96,2.44-2.26,2.98l0.74,6.25h-0.71c0,1.54,0,3.59,0,5.8h8.58V10.52H33.16v31.64h32.36c0-2.2,0-4.25,0-5.8h-0.73
			l0.76-6.39c-2.61-1.04-3.3-3.61-2.55-6.83c0.61-2.63,2.97-4.99,5.48-5.81c1.42-0.47,3.91-0.4,3.91-0.4S71.49,17.81,70.79,18.66z
			 M90.63,47.69v1.58c0,0,0,2.38-2.37,2.38H69.39c0,1.23,0,2.32,0,3.17c0,5.6,0.24,10.63-1.7,10.63c-1.93,0-2.17-5.59-2.17-10.63
			c0-0.8,0-1.9,0-3.17h-4.09v-2.38c0.44,0,0.79-0.35,0.79-0.79v-0.79h3.3c0-0.78,0-1.57,0-2.37H33.16h-0.79
			c-1.31,0-2.37-1.06-2.37-2.37V10.52V9.73c0-1.31,1.06-2.37,2.37-2.37h46.39c1.31,0,2.38,1.06,2.38,2.37v0.79v32.43
			c0,1.31-1.06,2.37-2.38,2.37h-0.79h-8.58c0,0.8,0,1.59,0,2.37H90.63z"/>
		<path fill="#5C97BF" d="M51.94,49.27h9.49v2.38H22.88c-2.37,0-2.37-2.38-2.37-2.38v-1.58h30.64v0.79
			C51.15,48.92,51.51,49.27,51.94,49.27z"/>
	</g>
	<g>
	</g>
</g>
</svg>
